<svg width="61" height="61" viewBox="0 0 61 61" fill="none" xmlns="http://www.w3.org/2000/svg">
<path d="M61 30.5C61 47.3447 47.3447 61 30.5 61C13.6553 61 0 47.3447 0 30.5C0 13.6553 13.6553 0 30.5 0C47.3447 0 61 13.6553 61 30.5Z" fill="#429383"/>
<path d="M32.4142 13.5858C31.6332 12.8047 30.3668 12.8047 29.5858 13.5858L16.8579 26.3137C16.0768 27.0948 16.0768 28.3611 16.8579 29.1421C17.6389 29.9232 18.9052 29.9232 19.6863 29.1421L31 17.8284L42.3137 29.1421C43.0948 29.9232 44.3611 29.9232 45.1421 29.1421C45.9232 28.3611 45.9232 27.0948 45.1421 26.3137L32.4142 13.5858ZM33 46V15H29L29 46H33Z" fill="white"/>
</svg>
